ply
format ascii 1.0
comment Created by Blender 2.73 (sub 0) - www.blender.org, source file: 'scene.blend'
element vertex 12
property float x
property float y
property float z
element face 3
property list uchar uint vertex_indices
end_header
-1021.775452 937.110962 -303.199829
978.224548 937.110962 -303.199829
978.224548 937.111084 1696.800171
-1021.775452 937.111084 1696.800171
-1021.775574 -1062.889038 1696.800171
-1021.775452 -1062.889038 -303.199829
-1021.775452 937.110901 -303.199829
-1021.775574 937.110901 1696.800171
-1021.775452 -1062.889038 -271.599915
978.224548 -1062.889038 -271.599915
978.224548 937.110901 -271.599915
-1021.775452 937.110901 -271.599915
4 0 1 2 3
4 4 5 6 7
4 8 9 10 11
